<svg xmlns="http://www.w3.org/2000/svg" version="1.1" xmlns:xlink="http://www.w3.org/1999/xlink" xmlns:svgjs="http://svgjs.dev/svgjs" width="1000" height="1000" viewBox="0 0 1000 1000"><rect width="1000" height="1000" fill="#000000"></rect><g transform="matrix(0.7,0,0,0.7,149.57576280698004,393.5128565462009)"><svg viewBox="0 0 396 121" data-background-color="#ffffff" preserveAspectRatio="xMidYMid meet" height="305" width="1000" xmlns="http://www.w3.org/2000/svg" xmlns:xlink="http://www.w3.org/1999/xlink"><g id="tight-bounds" transform="matrix(1,0,0,1,0.23999712253248617,-0.14897256248389112)"><svg viewBox="0 0 395.52 121.29794178684666" height="121.29794178684666" width="395.52"><g><svg viewBox="0 0 642.508489999561 197.04428958718017" height="121.29794178684666" width="395.52"><g><rect width="8.706361209677207" height="171.09489689190752" x="418.31152149130156" y="12.974696347636325" fill="#ffffff" opacity="1" stroke-width="0" stroke="transparent" fill-opacity="1" class="rect-o-0" data-fill-palette-color="primary" rx="1%" id="o-0" data-palette-color="#dedede"></rect></g><g transform="matrix(1,0,0,1,0,27.232604421961952)"><svg viewBox="0 0 395.52 142.57908074325627" height="142.57908074325627" width="395.52"><g id="textblocktransform"><svg viewBox="0 0 395.52 142.57908074325627" height="142.57908074325627" width="395.52" id="textblock"><g><svg viewBox="0 0 395.52 96.54315343915343" height="96.54315343915343" width="395.52"><g transform="matrix(1,0,0,1,0,0)"><svg width="395.52" viewBox="0.9500000476837158 -34.599998474121094 141.74000549316406 34.599998474121094" height="96.54315343915343" data-palette-color="#dedede"><path d="M0.95-34.6L5.3-34.6 14.05-19.8 22.85-34.6 27-34.6 16.35-17.05 27 0 22.65 0 13.95-14.35 5.1 0 0.95 0 11.65-16.95 0.95-34.6ZM57.4 0L53.6 0 53.6-15.65 36-15.65 36 0 32.15 0 32.15-34.6 36-34.6 36-19.1 53.6-19.1 53.6-34.6 57.4-34.6 57.4 0ZM69.75 0L65.9 0 65.9-34.6 69.75-34.6 69.75 0ZM78.19 0L78.19-34.6 90.74-34.6Q95.89-34.6 98.47-32.48 101.04-30.35 101.04-25.8L101.04-25.8Q101.04-22.55 99.92-20.73 98.79-18.9 96.59-17.85L96.59-17.85Q102.09-15.95 102.09-9.7L102.09-9.7Q102.09-4.5 99.34-2.25 96.59 0 91.39 0L91.39 0 78.19 0ZM90.99-15.9L90.99-15.9 82.04-15.9 82.04-3.4 91.24-3.4Q94.64-3.4 96.42-4.83 98.19-6.25 98.19-9.85L98.19-9.85Q98.19-11.75 97.47-13.05 96.74-14.35 95.54-14.9L95.54-14.9Q93.34-15.9 90.99-15.9ZM90.59-31.2L90.59-31.2 82.04-31.2 82.04-19.25 90.94-19.25Q94.14-19.25 95.62-20.78 97.09-22.3 97.09-25.38 97.09-28.45 95.52-29.83 93.94-31.2 90.59-31.2ZM112.84 0L108.99 0 108.99-34.6 112.84-34.6 112.84 0ZM128.34-31.15L117.69-31.15 117.69-34.6 142.69-34.6 142.69-31.15 132.14-31.15 132.14 0 128.34 0 128.34-31.15Z" opacity="1" transform="matrix(1,0,0,1,0,0)" fill="#ffffff" class="wordmark-text-0" data-fill-palette-color="primary" id="text-0"></path></svg></g></svg></g><g transform="matrix(1,0,0,1,163.31020800000002,119.33467493045501)"><svg viewBox="0 0 232.20979199999996 23.24440581280125" height="23.24440581280125" width="232.20979199999996"><g transform="matrix(1,0,0,1,0,0)"><svg width="232.20979199999996" viewBox="3.200000047683716 -35.650001525878906 446 44.650001525878906" height="23.24440581280125" data-palette-color="#dedede"><path d="M19.2 0.4Q14.3 0.4 10.7-1.78 7.1-3.95 5.15-8.03 3.2-12.1 3.2-17.65L3.2-17.65Q3.2-23.2 5.15-27.28 7.1-31.35 10.7-33.5 14.3-35.65 19.2-35.65L19.2-35.65Q22.85-35.65 25.9-34.5 28.95-33.35 31.2-31.05L31.2-31.05 29.9-28.6Q27.4-30.9 24.88-31.9 22.35-32.9 19.25-32.9L19.25-32.9Q13.15-32.9 9.78-28.9 6.4-24.9 6.4-17.65L6.4-17.65Q6.4-10.35 9.75-6.35 13.1-2.35 19.25-2.35L19.25-2.35Q22.35-2.35 24.88-3.35 27.4-4.35 29.9-6.65L29.9-6.65 31.2-4.2Q28.95-1.9 25.9-0.75 22.85 0.4 19.2 0.4L19.2 0.4ZM50.3-24.85L50.55-22.2 48.4-22Q44.45-21.6 42.67-19.45 40.9-17.3 40.9-14.2L40.9-14.2 40.9 0 37.85 0 37.85-24.25 40.85-24.25 40.85-20Q41.95-22.25 43.97-23.38 46-24.5 49-24.75L49-24.75 50.3-24.85ZM74.25-13.1L74.25-11.75 55.9-11.75Q56.05-7.2 58.3-4.78 60.55-2.35 64.7-2.35L64.7-2.35Q69.09-2.35 72.65-5.35L72.65-5.35 73.84-2.95Q72.25-1.45 69.77-0.55 67.3 0.35 64.7 0.35L64.7 0.35Q59.15 0.35 55.95-3 52.75-6.35 52.75-12.2L52.75-12.2Q52.75-15.95 54.17-18.82 55.59-21.7 58.17-23.28 60.75-24.85 64.09-24.85L64.09-24.85Q68.84-24.85 71.55-21.75 74.25-18.65 74.25-13.1L74.25-13.1ZM64.09-22.35Q60.59-22.35 58.5-20.15 56.4-17.95 56-14L56-14 71.45-14Q71.34-18 69.45-20.18 67.55-22.35 64.09-22.35L64.09-22.35ZM90.19-24.85Q94.59-24.85 96.77-22.55 98.94-20.25 98.94-15.6L98.94-15.6 98.94 0 95.94 0 95.94-4.35Q94.89-2.1 92.89-0.88 90.89 0.35 88.29 0.35L88.29 0.35Q85.94 0.35 83.99-0.6 82.04-1.55 80.92-3.25 79.79-4.95 79.79-7L79.79-7Q79.79-9.7 81.19-11.2 82.59-12.7 85.84-13.35 89.09-14 94.89-14L94.89-14 95.94-14 95.94-15.85Q95.94-19.15 94.59-20.68 93.24-22.2 90.34-22.2L90.34-22.2Q88.14-22.2 86.12-21.58 84.09-20.95 81.94-19.55L81.94-19.55 80.79-21.9Q82.64-23.25 85.19-24.05 87.74-24.85 90.19-24.85L90.19-24.85ZM88.54-2.3Q91.79-2.3 93.87-4.5 95.94-6.7 95.94-10.1L95.94-10.1 95.94-11.75 94.99-11.75Q90.19-11.75 87.64-11.35 85.09-10.95 84.04-9.98 82.99-9 82.99-7.15L82.99-7.15Q82.99-5.05 84.59-3.68 86.19-2.3 88.54-2.3L88.54-2.3ZM116.74-2.25Q117.84-2.25 118.89-2.4L118.89-2.4 118.74 0.15Q117.64 0.3 116.39 0.3L116.39 0.3Q112.29 0.3 110.19-1.93 108.09-4.15 108.09-8L108.09-8 108.09-21.8 103.29-21.8 103.29-24.25 108.09-24.25 108.09-31.75 111.14-31.75 111.14-24.25 118.24-24.25 118.24-21.8 111.14-21.8 111.14-8.4Q111.14-5.35 112.56-3.8 113.99-2.25 116.74-2.25L116.74-2.25ZM143.19-13.1L143.19-11.75 124.84-11.75Q124.99-7.2 127.24-4.78 129.49-2.35 133.64-2.35L133.64-2.35Q138.04-2.35 141.59-5.35L141.59-5.35 142.79-2.95Q141.19-1.45 138.71-0.55 136.24 0.35 133.64 0.35L133.64 0.35Q128.09 0.35 124.89-3 121.69-6.35 121.69-12.2L121.69-12.2Q121.69-15.95 123.11-18.82 124.54-21.7 127.11-23.28 129.69-24.85 133.04-24.85L133.04-24.85Q137.79-24.85 140.49-21.75 143.19-18.65 143.19-13.1L143.19-13.1ZM133.04-22.35Q129.54-22.35 127.44-20.15 125.34-17.95 124.94-14L124.94-14 140.39-14Q140.29-18 138.39-20.18 136.49-22.35 133.04-22.35L133.04-22.35ZM170.93-3.1L179.68-24.25 182.78-24.25 168.48 9 165.38 9 169.33 0 158.93-24.25 162.18-24.25 170.93-3.1ZM196.98 0.35Q193.63 0.35 191.11-1.2 188.58-2.75 187.18-5.6 185.78-8.45 185.78-12.25L185.78-12.25Q185.78-16.05 187.18-18.9 188.58-21.75 191.11-23.3 193.63-24.85 196.98-24.85L196.98-24.85Q200.28-24.85 202.83-23.3 205.38-21.75 206.76-18.9 208.13-16.05 208.13-12.25L208.13-12.25Q208.13-8.45 206.76-5.6 205.38-2.75 202.83-1.2 200.28 0.35 196.98 0.35L196.98 0.35ZM196.93-2.35Q200.78-2.35 202.88-4.9 204.98-7.45 204.98-12.25L204.98-12.25Q204.98-16.95 202.86-19.58 200.73-22.2 196.98-22.2L196.98-22.2Q193.18-22.2 191.08-19.58 188.98-16.95 188.98-12.25L188.98-12.25Q188.98-7.45 191.03-4.9 193.08-2.35 196.93-2.35L196.93-2.35ZM231.18-24.25L234.23-24.25 234.23 0 231.23 0 231.23-4.35Q230.08-2.05 227.95-0.85 225.83 0.35 223.13 0.35L223.13 0.35Q218.83 0.35 216.65-2.02 214.48-4.4 214.48-9.05L214.48-9.05 214.48-24.25 217.53-24.25 217.53-9.25Q217.53-5.7 218.95-4.03 220.38-2.35 223.43-2.35L223.43-2.35Q226.93-2.35 229.05-4.58 231.18-6.8 231.18-10.5L231.18-10.5 231.18-24.25ZM254.68-24.85L254.93-22.2 252.78-22Q248.83-21.6 247.05-19.45 245.28-17.3 245.28-14.2L245.28-14.2 245.28 0 242.23 0 242.23-24.25 245.23-24.25 245.23-20Q246.33-22.25 248.35-23.38 250.38-24.5 253.38-24.75L253.38-24.75 254.68-24.85ZM283.17-24.85Q286.37-24.85 288.82-23.28 291.27-21.7 292.62-18.82 293.97-15.95 293.97-12.15L293.97-12.15Q293.97-8.4 292.62-5.58 291.27-2.75 288.82-1.2 286.37 0.35 283.17 0.35L283.17 0.35Q280.22 0.35 278.07-0.93 275.92-2.2 274.82-4.65L274.82-4.65 274.82 9 271.77 9 271.77-24.25 274.82-24.25 274.82-19.85Q275.92-22.3 278.07-23.58 280.22-24.85 283.17-24.85L283.17-24.85ZM282.72-2.35Q286.57-2.35 288.7-4.93 290.82-7.5 290.82-12.15L290.82-12.15Q290.82-16.9 288.7-19.55 286.57-22.2 282.77-22.2L282.77-22.2Q278.97-22.2 276.9-19.6 274.82-17 274.82-12.25L274.82-12.25Q274.82-7.5 276.87-4.93 278.92-2.35 282.72-2.35L282.72-2.35ZM310.07 0.35Q306.72 0.35 304.19-1.2 301.67-2.75 300.27-5.6 298.87-8.45 298.87-12.25L298.87-12.25Q298.87-16.05 300.27-18.9 301.67-21.75 304.19-23.3 306.72-24.85 310.07-24.85L310.07-24.85Q313.37-24.85 315.92-23.3 318.47-21.75 319.84-18.9 321.22-16.05 321.22-12.25L321.22-12.25Q321.22-8.45 319.84-5.6 318.47-2.75 315.92-1.2 313.37 0.35 310.07 0.35L310.07 0.35ZM310.02-2.35Q313.87-2.35 315.97-4.9 318.07-7.45 318.07-12.25L318.07-12.25Q318.07-16.95 315.94-19.58 313.82-22.2 310.07-22.2L310.07-22.2Q306.27-22.2 304.17-19.58 302.07-16.95 302.07-12.25L302.07-12.25Q302.07-7.45 304.12-4.9 306.17-2.35 310.02-2.35L310.02-2.35ZM340.12-24.85L340.37-22.2 338.22-22Q334.27-21.6 332.49-19.45 330.72-17.3 330.72-14.2L330.72-14.2 330.72 0 327.67 0 327.67-24.25 330.67-24.25 330.67-20Q331.77-22.25 333.79-23.38 335.81-24.5 338.81-24.75L338.81-24.75 340.12-24.85ZM356.26-2.25Q357.36-2.25 358.41-2.4L358.41-2.4 358.26 0.15Q357.16 0.3 355.91 0.3L355.91 0.3Q351.81 0.3 349.71-1.93 347.61-4.15 347.61-8L347.61-8 347.61-21.8 342.81-21.8 342.81-24.25 347.61-24.25 347.61-31.75 350.66-31.75 350.66-24.25 357.76-24.25 357.76-21.8 350.66-21.8 350.66-8.4Q350.66-5.35 352.09-3.8 353.51-2.25 356.26-2.25L356.26-2.25ZM367.71-25.75L367.71-24.25 374.81-24.25 374.81-21.8 367.71-21.8 367.71 0 364.66 0 364.66-21.8 359.86-21.8 359.86-24.25 364.66-24.25 364.66-25.45Q364.66-30.15 366.96-32.58 369.26-35 373.96-35.25L373.96-35.25 375.71-35.35 375.96-32.85 373.66-32.75Q370.61-32.55 369.16-30.83 367.71-29.1 367.71-25.75L367.71-25.75ZM388.61 0.35Q385.26 0.35 382.73-1.2 380.21-2.75 378.81-5.6 377.41-8.45 377.41-12.25L377.41-12.25Q377.41-16.05 378.81-18.9 380.21-21.75 382.73-23.3 385.26-24.85 388.61-24.85L388.61-24.85Q391.91-24.85 394.46-23.3 397.01-21.75 398.38-18.9 399.76-16.05 399.76-12.25L399.76-12.25Q399.76-8.45 398.38-5.6 397.01-2.75 394.46-1.2 391.91 0.35 388.61 0.35L388.61 0.35ZM388.56-2.35Q392.41-2.35 394.51-4.9 396.61-7.45 396.61-12.25L396.61-12.25Q396.61-16.95 394.48-19.58 392.36-22.2 388.61-22.2L388.61-22.2Q384.81-22.2 382.71-19.58 380.61-16.95 380.61-12.25L380.61-12.25Q380.61-7.45 382.66-4.9 384.71-2.35 388.56-2.35L388.56-2.35ZM409.26 0L406.21 0 406.21-35.25 409.26-35.25 409.26 0ZM420.35 0L417.3 0 417.3-24.25 420.35-24.25 420.35 0ZM416.85-30.65L416.85-34.5 420.85-34.5 420.85-30.65 416.85-30.65ZM438.05 0.35Q434.7 0.35 432.18-1.2 429.65-2.75 428.25-5.6 426.85-8.45 426.85-12.25L426.85-12.25Q426.85-16.05 428.25-18.9 429.65-21.75 432.18-23.3 434.7-24.85 438.05-24.85L438.05-24.85Q441.35-24.85 443.9-23.3 446.45-21.75 447.83-18.9 449.2-16.05 449.2-12.25L449.2-12.25Q449.2-8.45 447.83-5.6 446.45-2.75 443.9-1.2 441.35 0.35 438.05 0.35L438.05 0.35ZM438-2.35Q441.85-2.35 443.95-4.9 446.05-7.45 446.05-12.25L446.05-12.25Q446.05-16.95 443.93-19.58 441.8-22.2 438.05-22.2L438.05-22.2Q434.25-22.2 432.15-19.58 430.05-16.95 430.05-12.25L430.05-12.25Q430.05-7.45 432.1-4.9 434.15-2.35 438-2.35L438-2.35Z" opacity="1" transform="matrix(1,0,0,1,0,0)" fill="#ffffff" class="slogan-text-1" data-fill-palette-color="secondary" id="text-1"></path></svg></g></svg></g></svg></g></svg></g><g transform="matrix(1,0,0,1,449.80940419228034,0)"><svg viewBox="0 0 192.69908580728068 197.04428958718017" height="197.04428958718017" width="192.69908580728068"><g><svg xmlns="http://www.w3.org/2000/svg" xmlns:xlink="http://www.w3.org/1999/xlink" version="1.1" x="0" y="0" viewBox="5.900000095367432 4.999999046325684 88.11312103271484 90.0999984741211" enable-background="new 0 0 100 100" xml:space="preserve" height="197.04428958718017" width="192.69908580728068" class="icon-icon-0" data-fill-palette-color="accent" id="icon-0"><path d="M80.3 36.2v52.9c0 1.1-0.9 2-2 2H11.8c-1.1 0-2-0.9-2-2V20.7c0-1.1 0.9-2 2-2h51l3.9-3.9H11.8c-3.2 0-5.9 2.6-5.9 5.9v68.5c0 3.2 2.6 5.9 5.9 5.9h66.5c3.2 0 5.9-2.6 5.9-5.9V32.3L80.3 36.2z" fill="#ffffff" data-fill-palette-color="accent"></path><path d="M93.4 13.4l-7.8-7.8c-0.8-0.8-2-0.8-2.8 0l-45 45c-0.1 0.2-0.2 0.3-0.4 0.5l-5.8 13.7c-0.4 0.8-0.2 1.7 0.4 2.3 0.6 0.6 1.4 0.8 2.3 0.4l13.7-5.8c0.2-0.1 0.3-0.2 0.5-0.4l45-45C94.2 15.4 94.2 14.2 93.4 13.4zM36.4 62.7l4.2-9.8 5.6 5.6L36.4 62.7zM85.4 19.3l-5.6-5.6 4.5-4.5 5.6 5.6L85.4 19.3z" fill="#ffffff" data-fill-palette-color="accent"></path></svg></g></svg></g></svg></g><defs></defs></svg><rect width="395.52" height="121.29794178684666" fill="none" stroke="none" visibility="hidden"></rect></g></svg></g></svg>